 <svg  version="1.0" xmlns="http://www.w3.org/2000/svg"  width="512.000000pt" height="512.000000pt" viewBox="0 0 512.000000 512.000000"  preserveAspectRatio="xMidYMid meet">  <g transform="translate(0.000000,512.000000) scale(0.050000,-0.050000)" fill="#ffffff" stroke="none"> <path d="M4319 9029 c-114 -113 -542 -244 -1016 -309 -728 -101 -905 -176 -987 -421 -26 -78 -37 -88 -117 -108 -103 -24 -136 -87 -138 -262 -1 -110 -25 -149 -92 -149 -162 0 -446 -244 -500 -431 -37 -128 -47 -136 -202 -170 l-124 -26 -14 -92 c-16 -103 -14 -2737 3 -2764 6 -9 25 -17 42 -17 114 0 265 -86 278 -158 40 -216 261 -429 493 -472 98 -19 108 -36 120 -199 12 -157 67 -231 171 -231 47 0 59 -13 90 -100 93 -261 213 -311 1004 -420 441 -61 802 -168 946 -281 48 -38 164 -54 164 -24 0 27 -204 150 -343 209 -186 78 -484 145 -917 205 -624 86 -760 154 -792 392 l-13 99 -118 0 -117 0 0 210 0 210 -56 0 c-273 0 -483 170 -561 454 l-37 136 -133 6 -133 6 5 1394 5 1394 132 -7 133 -7 14 97 c42 284 206 449 507 508 l124 24 0 198 0 197 120 0 c119 0 120 0 120 59 0 264 170 355 830 441 558 73 880 169 1125 332 l130 88 60 -51 c202 -170 575 -285 1229 -377 596 -85 747 -161 778 -390 l13 -100 112 -6 113 -6 -7 -194 c-7 -191 -7 -194 40 -203 26 -5 99 -18 163 -30 242 -44 434 -279 434 -529 l0 -58 135 7 135 7 5 -1395 5 -1395 -140 0 -140 0 0 -56 c0 -273 -232 -507 -532 -538 l-107 -11 -5 -203 -6 -202 -107 0 -106 0 -8 -96 c-20 -244 -191 -327 -849 -413 -587 -77 -1151 -264 -1195 -397 -13 -38 125 -30 158 9 92 113 473 224 1048 306 628 89 851 186 900 391 20 81 45 110 99 110 89 0 131 60 150 211 23 180 35 209 88 209 178 0 399 183 512 425 l82 175 79 0 c57 0 79 -8 79 -30 0 -91 36 -10 47 105 16 171 17 2699 1 2780 -11 53 -25 63 -130 92 -101 28 -119 41 -129 88 -54 252 -267 459 -516 502 -93 16 -108 45 -111 219 -2 120 -63 204 -148 204 -37 0 -57 21 -95 101 -116 249 -276 324 -849 399 -605 78 -1210 261 -1210 365 0 41 -172 13 -221 -36z"/> <path d="M4373 8743 c-107 -118 -533 -261 -935 -313 -732 -96 -886 -163 -913 -398 l-10 -92 -108 0 -107 0 0 -187 0 -187 -108 -12 c-243 -25 -411 -183 -462 -434 l-23 -110 -124 -6 -123 -6 0 -456 c0 -250 -6 -836 -13 -1302 l-14 -846 134 12 c132 12 133 12 145 -42 35 -157 52 -202 106 -288 85 -133 283 -231 477 -236 3 0 5 -81 5 -180 l0 -180 78 0 c115 0 142 -16 142 -85 0 -217 174 -308 736 -386 577 -79 908 -176 1097 -320 83 -63 67 -66 309 60 257 134 407 176 878 242 667 93 796 154 836 392 l15 87 98 10 98 10 2 180 1 180 110 12 c265 29 480 248 480 491 0 41 10 46 125 51 l125 6 5 1294 5 1294 -124 6 -125 6 -15 89 c-46 269 -258 461 -509 461 l-67 0 -3 145 c-2 80 -4 163 -5 185 -2 35 -16 40 -105 39 l-103 0 -12 90 c-32 236 -144 297 -702 381 -577 86 -862 155 -950 231 -125 108 -300 165 -347 112z m198 -140 c184 -89 342 -139 549 -174 105 -18 231 -41 280 -52 130 -28 271 -53 426 -76 323 -47 454 -136 493 -330 9 -49 31 -70 109 -108 l97 -46 -10 -119 c-13 -143 24 -185 182 -206 54 -7 131 -35 172 -62 40 -28 81 -50 91 -50 10 0 33 -34 51 -75 18 -41 45 -99 61 -128 15 -29 28 -77 28 -105 0 -65 65 -132 129 -132 70 0 156 -36 141 -60 -7 -11 -12 -556 -11 -1210 l1 -1190 -59 0 c-130 0 -200 -51 -201 -145 0 -82 -75 -226 -152 -294 -64 -56 -105 -73 -301 -121 -92 -23 -116 -62 -135 -228 -14 -114 -39 -152 -102 -152 -58 0 -80 -29 -110 -138 -49 -186 -204 -262 -633 -312 -508 -59 -846 -152 -1115 -307 l-99 -56 -211 107 c-237 120 -478 189 -792 225 -651 75 -794 131 -848 331 -30 111 -43 125 -133 157 l-79 27 -6 132 c-7 157 -39 193 -207 231 -185 41 -297 144 -359 330 -64 188 -73 198 -193 212 l-95 11 -7 170 c-3 94 0 640 8 1215 l14 1045 65 0 c92 0 160 62 190 174 60 226 153 323 361 376 207 53 219 66 219 236 l0 146 90 24 c97 26 118 54 140 189 14 87 97 160 220 192 68 18 579 95 670 101 169 12 429 69 540 120 50 23 103 41 118 42 16 0 44 14 62 30 39 35 180 108 211 109 12 1 75 -25 140 -56z"/> <path d="M5185 7216 c-109 -132 -131 -443 -32 -452 133 -13 195 176 96 294 -43 51 -48 67 -28 103 27 51 -2 96 -36 55z m34 -259 c44 -42 45 -45 10 -70 -81 -60 -123 -30 -96 68 15 56 27 56 86 2z"/> <path d="M4112 7175 c-17 -25 -38 -84 -49 -132 -26 -117 -32 -118 -72 -13 -46 120 -123 175 -164 119 -45 -61 -26 -117 43 -129 53 -9 65 -24 100 -130 21 -66 42 -124 46 -129 14 -21 45 55 66 164 28 140 64 196 101 160 55 -55 92 24 44 94 -38 53 -79 52 -115 -4z"/> <path d="M5578 7106 c-15 -53 -24 -105 -20 -116 14 -37 80 -978 81 -1155 1 -222 -7 -231 -303 -324 -218 -68 -228 -74 -270 -152 -50 -93 -53 -91 134 -108 336 -30 560 -59 560 -72 0 -8 -88 -53 -195 -101 -254 -112 -399 -126 -511 -50 -97 66 -99 66 -164 -20 -105 -138 -345 -190 -530 -115 -107 42 -95 64 67 124 135 49 239 165 202 224 -60 98 -403 171 -653 140 -298 -38 -331 -53 -395 -187 -49 -103 -42 -137 20 -98 64 40 141 28 253 -40 127 -77 126 -92 -16 -151 -237 -100 -418 -48 -533 155 -148 259 -309 169 -542 -300 -151 -305 -200 -354 -298 -300 -143 79 -196 537 -86 745 50 92 45 155 -6 85 -68 -92 -95 38 -41 196 45 132 21 163 -33 44 -60 -131 -76 -299 -32 -347 26 -29 28 -49 10 -113 -102 -372 103 -884 314 -784 68 33 65 27 272 467 47 100 200 247 257 247 39 0 72 -40 186 -220 122 -193 383 -190 676 8 l106 71 51 -47 c243 -226 529 -235 686 -22 76 103 95 110 95 35 0 -112 41 -201 130 -283 144 -133 189 -107 190 110 l0 103 95 35 c52 20 182 79 288 132 194 97 408 178 469 178 30 0 33 -23 23 -210 -6 -115 -4 -210 5 -210 27 0 81 182 94 315 l12 125 115 0 116 0 51 93 c72 128 72 127 -118 127 l-170 0 0 65 c0 36 -18 304 -40 595 -22 292 -40 552 -40 579 l0 50 31 -45 c40 -57 77 -57 63 1 -22 96 -160 455 -175 455 -37 0 -78 -184 -59 -267 10 -46 33 -321 50 -613 18 -291 37 -593 44 -671 l11 -140 -253 31 c-290 35 -275 26 -206 130 93 141 121 526 75 1040 -20 221 -18 231 37 182 66 -59 59 -9 -28 227 -97 262 -114 279 -152 147z m-1285 -1927 l55 -21 -106 -49 -105 -49 -78 64 c-44 34 -79 66 -79 69 0 17 263 5 313 -14z m835 -421 c56 -65 63 -89 33 -107 -22 -14 -141 108 -141 144 0 45 55 26 108 -37z"/> <path d="M2793 7020 c-67 -80 -67 -126 1 -179 l53 -42 -46 -35 c-25 -19 -146 -95 -269 -169 -163 -99 -209 -135 -171 -135 82 0 331 131 437 230 58 54 104 83 111 71 21 -33 48 -25 73 22 19 36 17 48 -10 68 -24 17 -31 50 -27 121 7 128 -66 150 -152 48z m100 -71 c7 -17 8 -35 2 -40 -17 -18 -75 15 -75 43 0 38 58 36 73 -3z"/> <path d="M4620 6901 c-104 -41 -509 -194 -900 -341 -711 -267 -739 -281 -740 -344 0 -30 23 -25 165 34 238 98 687 272 1135 440 543 203 559 210 581 252 29 55 -16 47 -241 -41z"/> <path d="M3246 6915 c-47 -60 -47 -98 -1 -91 70 10 64 -47 -17 -141 -101 -118 -64 -135 42 -18 94 103 129 199 89 246 -29 36 -87 38 -113 4z"/> <path d="M4878 6562 c-69 -70 -74 -133 -14 -197 l45 -47 -60 -48 c-32 -26 -131 -88 -219 -138 -354 -200 -295 -224 88 -35 37 18 107 72 156 119 74 71 95 82 119 61 24 -20 34 -19 48 4 27 43 23 93 -9 105 -20 8 -25 36 -17 105 8 67 3 98 -17 111 -43 27 -57 22 -120 -40z m75 -71 c20 -53 -1 -74 -41 -45 -21 15 -32 38 -24 51 20 32 51 29 65 -6z"/> <path d="M4211 6476 c-38 -55 -44 -137 -7 -100 27 27 76 32 76 9 0 -9 -20 -24 -45 -35 -82 -36 -100 -110 -65 -264 18 -75 38 -210 44 -300 7 -91 20 -160 29 -154 28 17 19 332 -14 458 -37 143 -34 153 63 188 148 52 167 106 66 190 -75 64 -106 65 -147 8z"/> <path d="M2652 6395 c-16 -25 -40 -89 -54 -142 l-24 -97 -46 97 c-74 153 -129 181 -177 89 -34 -66 13 -135 75 -111 35 14 82 -76 106 -202 18 -101 55 -59 86 99 31 154 67 215 105 177 39 -39 57 -30 57 31 0 102 -77 138 -128 59z"/> <path d="M3630 6231 c-85 -90 -98 -143 -46 -195 l41 -41 -43 -75 c-126 -226 57 -335 313 -187 111 63 93 91 -34 54 -265 -78 -333 7 -151 189 104 104 150 163 150 193 0 26 -57 8 -90 -29 -39 -43 -119 -54 -141 -19 -19 32 30 78 78 73 33 -3 44 8 49 51 9 78 -45 72 -126 -14z"/> <path d="M5216 6188 c-99 -52 -132 -187 -56 -228 22 -12 40 -29 40 -37 0 -19 -226 -172 -385 -262 -153 -85 -146 -112 15 -52 147 56 348 185 394 254 27 41 34 43 65 18 29 -25 37 -25 52 0 27 42 23 79 -10 91 -22 9 -26 34 -18 105 14 119 -16 153 -97 111z m41 -137 c-6 -30 -11 -30 -47 -2 -34 26 -36 33 -10 50 36 23 66 -2 57 -48z"/> <path d="M2761 5677 c-23 -47 -41 -87 -41 -90 0 -7 175 -127 186 -127 5 0 20 27 34 60 30 73 41 74 116 10 78 -65 90 -63 130 21 46 96 45 102 -46 159 -101 64 -106 63 -135 -13 l-24 -63 -65 50 c-111 83 -112 83 -155 -7z"/> <path d="M5583 4616 c-32 -64 -36 -88 -18 -100 168 -112 175 -112 226 -14 36 70 30 84 -72 149 -98 61 -87 64 -136 -35z"/> <path d="M4081 4561 c-55 -55 -52 -81 9 -81 68 0 63 -30 -22 -134 -88 -107 -74 -139 20 -48 89 86 147 214 119 259 -31 49 -79 51 -126 4z"/> </g> </svg> 