 <svg  version="1.0" xmlns="http://www.w3.org/2000/svg"  width="512.000000pt" height="512.000000pt" viewBox="0 0 512.000000 512.000000"  preserveAspectRatio="xMidYMid meet">  <g transform="translate(0.000000,512.000000) scale(0.050000,-0.050000)" fill="#ffffff" stroke="none"> <path d="M4319 9029 c-114 -113 -542 -244 -1016 -309 -728 -101 -905 -176 -987 -421 -26 -78 -37 -88 -117 -108 -103 -24 -136 -87 -138 -262 -1 -110 -25 -149 -92 -149 -162 0 -446 -244 -500 -431 -37 -128 -47 -136 -202 -170 l-124 -26 -14 -92 c-16 -103 -14 -2737 3 -2764 6 -9 25 -17 42 -17 114 0 265 -86 278 -158 40 -216 261 -429 493 -472 98 -19 108 -36 120 -199 12 -157 67 -231 171 -231 47 0 59 -13 90 -100 93 -261 213 -311 1004 -420 441 -61 802 -168 946 -281 48 -38 164 -54 164 -24 0 27 -204 150 -343 209 -186 78 -484 145 -917 205 -624 86 -760 154 -792 392 l-13 99 -118 0 -117 0 0 210 0 210 -56 0 c-273 0 -483 170 -561 454 l-37 136 -133 6 -133 6 5 1394 5 1394 132 -7 133 -7 14 97 c42 284 206 449 507 508 l124 24 0 198 0 197 120 0 c119 0 120 0 120 59 0 264 170 355 830 441 558 73 880 169 1125 332 l130 88 60 -51 c202 -170 575 -285 1229 -377 596 -85 747 -161 778 -390 l13 -100 112 -6 113 -6 -7 -194 c-7 -191 -7 -194 40 -203 26 -5 99 -18 163 -30 242 -44 434 -279 434 -529 l0 -58 135 7 135 7 5 -1395 5 -1395 -140 0 -140 0 0 -56 c0 -273 -232 -507 -532 -538 l-107 -11 -5 -203 -6 -202 -107 0 -106 0 -8 -96 c-20 -244 -191 -327 -849 -413 -587 -77 -1151 -264 -1195 -397 -13 -38 125 -30 158 9 92 113 473 224 1048 306 628 89 851 186 900 391 20 81 45 110 99 110 89 0 131 60 150 211 23 180 35 209 88 209 178 0 399 183 512 425 l82 175 79 0 c57 0 79 -8 79 -30 0 -91 36 -10 47 105 16 171 17 2699 1 2780 -11 53 -25 63 -130 92 -101 28 -119 41 -129 88 -54 252 -267 459 -516 502 -93 16 -108 45 -111 219 -2 120 -63 204 -148 204 -37 0 -57 21 -95 101 -116 249 -276 324 -849 399 -605 78 -1210 261 -1210 365 0 41 -172 13 -221 -36z"/> <path d="M4373 8743 c-107 -118 -533 -261 -935 -313 -732 -96 -886 -163 -913 -398 l-10 -92 -108 0 -107 0 0 -187 0 -187 -108 -12 c-243 -25 -411 -183 -462 -434 l-23 -110 -124 -6 -123 -6 0 -456 c0 -250 -6 -836 -13 -1302 l-14 -846 134 12 c132 12 133 12 145 -42 35 -157 52 -202 106 -288 85 -133 283 -231 477 -236 3 0 5 -81 5 -180 l0 -180 78 0 c115 0 142 -16 142 -85 0 -217 174 -308 736 -386 577 -79 908 -176 1097 -320 83 -63 67 -66 309 60 257 134 407 176 878 242 667 93 796 154 836 392 l15 87 98 10 98 10 2 180 1 180 110 12 c265 29 480 248 480 491 0 41 10 46 125 51 l125 6 5 1294 5 1294 -124 6 -125 6 -15 89 c-46 269 -258 461 -509 461 l-67 0 -3 145 c-2 80 -4 163 -5 185 -2 35 -16 40 -105 39 l-103 0 -12 90 c-32 236 -144 297 -702 381 -577 86 -862 155 -950 231 -125 108 -300 165 -347 112z m198 -140 c184 -89 342 -139 549 -174 105 -18 231 -41 280 -52 130 -28 271 -53 426 -76 323 -47 454 -136 493 -330 9 -49 31 -70 109 -108 l97 -46 -10 -119 c-13 -143 24 -185 182 -206 54 -7 131 -35 172 -62 40 -28 81 -50 91 -50 10 0 33 -34 51 -75 18 -41 45 -99 61 -128 15 -29 28 -77 28 -105 0 -65 65 -132 129 -132 70 0 156 -36 141 -60 -7 -11 -12 -556 -11 -1210 l1 -1190 -59 0 c-130 0 -200 -51 -201 -145 0 -82 -75 -226 -152 -294 -64 -56 -105 -73 -301 -121 -92 -23 -116 -62 -135 -228 -14 -114 -39 -152 -102 -152 -58 0 -80 -29 -110 -138 -49 -186 -204 -262 -633 -312 -508 -59 -846 -152 -1115 -307 l-99 -56 -211 107 c-237 120 -478 189 -792 225 -651 75 -794 131 -848 331 -30 111 -43 125 -133 157 l-79 27 -6 132 c-7 157 -39 193 -207 231 -185 41 -297 144 -359 330 -64 188 -73 198 -193 212 l-95 11 -7 170 c-3 94 0 640 8 1215 l14 1045 65 0 c92 0 160 62 190 174 60 226 153 323 361 376 207 53 219 66 219 236 l0 146 90 24 c97 26 118 54 140 189 14 87 97 160 220 192 68 18 579 95 670 101 169 12 429 69 540 120 50 23 103 41 118 42 16 0 44 14 62 30 39 35 180 108 211 109 12 1 75 -25 140 -56z"/> <path d="M5676 6871 l-64 -130 26 -232 c22 -207 22 -236 -6 -267 -18 -19 -32 -50 -32 -69 0 -47 -20 -42 -118 30 -49 36 -91 55 -99 44 -7 -11 -39 -52 -70 -93 l-57 -73 -91 53 -91 53 -67 -78 c-137 -163 -136 -226 3 -293 89 -44 91 -44 118 -5 83 119 109 139 146 118 20 -12 66 -39 102 -60 l66 -39 68 80 c38 44 69 94 70 110 2 47 72 127 97 112 13 -8 23 -52 23 -98 0 -92 48 -610 80 -863 30 -243 31 -241 -57 -268 -43 -13 -108 -23 -145 -23 l-68 0 7 227 c9 286 -53 396 -201 358 -96 -25 -253 -342 -270 -544 -13 -156 -31 -170 -145 -112 -106 55 -127 172 -171 931 -28 483 -138 1227 -179 1214 -92 -31 -104 -245 -35 -664 23 -143 61 -476 84 -740 83 -977 87 -993 219 -1067 106 -59 165 -54 333 29 117 58 152 67 185 50 57 -31 292 -27 371 6 174 73 256 474 193 956 -11 80 -24 218 -30 306 -6 88 -19 222 -29 299 -17 127 -15 146 29 232 112 222 107 296 -29 467 -34 43 -62 99 -62 125 0 82 -38 52 -104 -82z m-311 -1782 c64 -59 65 -64 22 -112 -57 -63 -187 -5 -187 82 0 88 86 103 165 30z"/> <path d="M6271 6935 c-81 -124 -94 -194 -80 -415 15 -234 6 -292 -50 -310 -65 -20 -141 -106 -141 -159 0 -63 2 -63 112 1 115 68 101 116 154 -511 l46 -546 -53 -73 c-75 -104 -242 -248 -369 -320 -112 -63 -179 -217 -75 -171 19 9 104 39 188 67 225 76 256 112 360 420 67 198 75 450 33 969 -23 277 -22 301 12 360 94 160 116 221 127 332 l10 120 -102 92 c-70 63 -103 108 -103 141 0 60 -30 62 -69 3z"/> <path d="M3464 6843 c-295 -135 -377 -197 -396 -294 -15 -85 -1 -106 47 -65 59 51 290 171 381 198 111 32 268 168 260 224 -9 63 -28 59 -292 -63z"/> <path d="M5190 6807 c-354 -178 -307 -143 -340 -255 -35 -115 -20 -124 91 -49 49 33 187 111 307 173 207 108 305 194 286 253 -13 39 -52 25 -344 -122z"/> <path d="M4043 6675 c-12 -36 -24 -87 -27 -113 -8 -69 -40 -71 -83 -7 -95 141 -165 149 -186 19 -19 -118 4 -174 72 -174 50 0 64 -14 104 -99 26 -55 56 -100 67 -100 23 -1 70 178 70 265 0 56 35 71 74 32 34 -34 78 173 46 212 -45 55 -115 37 -137 -35z"/> <path d="M2718 6601 l-63 -79 -77 39 c-124 63 -129 60 -231 -144 -60 -119 -49 -144 78 -176 100 -26 104 -25 134 20 87 131 81 129 195 51 l104 -71 69 81 c120 140 114 213 -23 300 -115 73 -110 73 -186 -21z"/> <path d="M4251 6276 c-41 -178 -50 -237 -51 -317 0 -109 49 -193 92 -158 27 23 88 198 88 253 0 42 -34 30 -46 -16 -7 -26 -20 -36 -35 -27 -21 13 -19 109 5 257 9 55 -41 63 -53 8z"/> <path d="M3620 6145 c-41 -87 -50 -386 -13 -435 46 -60 96 -17 138 119 39 130 27 180 -26 109 l-36 -47 -25 55 c-19 42 -19 71 -1 131 39 131 15 176 -37 68z"/> <path d="M2973 6105 c-31 -188 -17 -282 65 -422 135 -229 193 -423 151 -506 -99 -194 -455 -454 -631 -460 -159 -7 -202 177 -48 208 281 57 490 479 333 674 -64 79 -78 129 -45 150 32 20 126 282 119 331 -6 41 -21 28 -116 -96 -130 -172 -106 -170 -246 -24 -149 155 -164 153 -203 -19 -43 -189 -42 -200 41 -290 69 -75 71 -83 47 -140 -53 -130 -84 -321 -73 -467 5 -80 1 -205 -10 -277 -40 -254 11 -381 158 -401 200 -27 555 247 687 529 85 179 79 181 132 -38 134 -552 304 -582 950 -165 218 141 240 167 285 346 41 165 54 165 -219 -1 -263 -159 -356 -184 -473 -129 -76 36 -209 231 -191 279 32 83 491 208 619 169 73 -22 175 20 175 73 0 46 -332 171 -456 171 -331 0 -576 -380 -464 -720 29 -87 15 -125 -27 -79 -33 36 -133 340 -133 405 0 143 -340 974 -399 974 -9 0 -21 -34 -28 -75z m-293 -756 c0 -34 -161 -96 -185 -72 -20 20 7 87 61 148 33 38 124 -18 124 -76z"/> <path d="M4915 5745 c-42 -46 -44 -137 -5 -205 40 -71 37 -181 -10 -283 -69 -154 -36 -226 38 -81 106 207 126 465 45 565 -33 41 -35 41 -68 4z"/> <path d="M4344 4622 c-223 -117 -284 -169 -284 -245 0 -71 16 -71 129 1 50 31 145 77 211 102 137 51 150 64 168 165 18 98 6 97 -224 -23z"/> </g> </svg> 