 <svg  version="1.0" xmlns="http://www.w3.org/2000/svg"  width="512.000000pt" height="512.000000pt" viewBox="0 0 512.000000 512.000000"  preserveAspectRatio="xMidYMid meet">  <g transform="translate(0.000000,512.000000) scale(0.050000,-0.050000)" fill="#ffffff" stroke="none"> <path d="M4319 9029 c-114 -113 -542 -244 -1016 -309 -728 -101 -905 -176 -987 -421 -26 -78 -37 -88 -117 -108 -103 -24 -136 -87 -138 -262 -1 -110 -25 -149 -92 -149 -162 0 -446 -244 -500 -431 -37 -128 -47 -136 -202 -170 l-124 -26 -14 -92 c-16 -103 -14 -2737 3 -2764 6 -9 25 -17 42 -17 114 0 265 -86 278 -158 40 -216 261 -429 493 -472 98 -19 108 -36 120 -199 12 -157 67 -231 171 -231 47 0 59 -13 90 -100 93 -261 213 -311 1004 -420 441 -61 802 -168 946 -281 48 -38 164 -54 164 -24 0 27 -204 150 -343 209 -186 78 -484 145 -917 205 -624 86 -760 154 -792 392 l-13 99 -118 0 -117 0 0 210 0 210 -56 0 c-273 0 -483 170 -561 454 l-37 136 -133 6 -133 6 5 1394 5 1394 132 -7 133 -7 14 97 c42 284 206 449 507 508 l124 24 0 198 0 197 120 0 c119 0 120 0 120 59 0 264 170 355 830 441 558 73 880 169 1125 332 l130 88 60 -51 c202 -170 575 -285 1229 -377 596 -85 747 -161 778 -390 l13 -100 112 -6 113 -6 -7 -194 c-7 -191 -7 -194 40 -203 26 -5 99 -18 163 -30 242 -44 434 -279 434 -529 l0 -58 135 7 135 7 5 -1395 5 -1395 -140 0 -140 0 0 -56 c0 -273 -232 -507 -532 -538 l-107 -11 -5 -203 -6 -202 -107 0 -106 0 -8 -96 c-20 -244 -191 -327 -849 -413 -587 -77 -1151 -264 -1195 -397 -13 -38 125 -30 158 9 92 113 473 224 1048 306 628 89 851 186 900 391 20 81 45 110 99 110 89 0 131 60 150 211 23 180 35 209 88 209 178 0 399 183 512 425 l82 175 79 0 c57 0 79 -8 79 -30 0 -91 36 -10 47 105 16 171 17 2699 1 2780 -11 53 -25 63 -130 92 -101 28 -119 41 -129 88 -54 252 -267 459 -516 502 -93 16 -108 45 -111 219 -2 120 -63 204 -148 204 -37 0 -57 21 -95 101 -116 249 -276 324 -849 399 -605 78 -1210 261 -1210 365 0 41 -172 13 -221 -36z"/> <path d="M4373 8743 c-107 -118 -533 -261 -935 -313 -732 -96 -886 -163 -913 -398 l-10 -92 -108 0 -107 0 0 -187 0 -187 -108 -12 c-243 -25 -411 -183 -462 -434 l-23 -110 -124 -6 -123 -6 0 -456 c0 -250 -6 -836 -13 -1302 l-14 -846 134 12 c132 12 133 12 145 -42 35 -157 52 -202 106 -288 85 -133 283 -231 477 -236 3 0 5 -81 5 -180 l0 -180 78 0 c115 0 142 -16 142 -85 0 -217 174 -308 736 -386 577 -79 908 -176 1097 -320 83 -63 67 -66 309 60 257 134 407 176 878 242 667 93 796 154 836 392 l15 87 98 10 98 10 2 180 1 180 110 12 c265 29 480 248 480 491 0 41 10 46 125 51 l125 6 5 1294 5 1294 -124 6 -125 6 -15 89 c-46 269 -258 461 -509 461 l-67 0 -3 145 c-2 80 -4 163 -5 185 -2 35 -16 40 -105 39 l-103 0 -12 90 c-32 236 -144 297 -702 381 -577 86 -862 155 -950 231 -125 108 -300 165 -347 112z m198 -140 c184 -89 342 -139 549 -174 105 -18 231 -41 280 -52 130 -28 271 -53 426 -76 323 -47 454 -136 493 -330 9 -49 31 -70 109 -108 l97 -46 -10 -119 c-13 -143 24 -185 182 -206 54 -7 131 -35 172 -62 40 -28 81 -50 91 -50 10 0 33 -34 51 -75 18 -41 45 -99 61 -128 15 -29 28 -77 28 -105 0 -65 65 -132 129 -132 70 0 156 -36 141 -60 -7 -11 -12 -556 -11 -1210 l1 -1190 -59 0 c-130 0 -200 -51 -201 -145 0 -82 -75 -226 -152 -294 -64 -56 -105 -73 -301 -121 -92 -23 -116 -62 -135 -228 -14 -114 -39 -152 -102 -152 -58 0 -80 -29 -110 -138 -49 -186 -204 -262 -633 -312 -508 -59 -846 -152 -1115 -307 l-99 -56 -211 107 c-237 120 -478 189 -792 225 -651 75 -794 131 -848 331 -30 111 -43 125 -133 157 l-79 27 -6 132 c-7 157 -39 193 -207 231 -185 41 -297 144 -359 330 -64 188 -73 198 -193 212 l-95 11 -7 170 c-3 94 0 640 8 1215 l14 1045 65 0 c92 0 160 62 190 174 60 226 153 323 361 376 207 53 219 66 219 236 l0 146 90 24 c97 26 118 54 140 189 14 87 97 160 220 192 68 18 579 95 670 101 169 12 429 69 540 120 50 23 103 41 118 42 16 0 44 14 62 30 39 35 180 108 211 109 12 1 75 -25 140 -56z"/> <path d="M5969 7149 c-55 -26 -291 -119 -523 -207 -559 -211 -746 -305 -746 -375 0 -42 63 -32 202 30 71 32 290 118 488 193 511 192 770 316 770 369 0 55 -60 52 -191 -10z"/> <path d="M4503 7134 c-12 -14 -38 -66 -59 -115 l-38 -89 -43 84 c-51 100 -111 126 -166 72 -46 -46 -32 -99 30 -118 66 -20 109 -66 124 -131 18 -83 49 -64 120 74 42 80 75 121 104 125 81 12 77 124 -5 124 -25 0 -55 -12 -67 -26z"/> <path d="M3012 7048 c-21 -54 -12 -391 27 -1108 l38 -690 -113 -104 c-151 -138 -199 -153 -406 -127 -290 36 -332 19 -162 -67 209 -106 299 -119 724 -104 723 25 969 65 1152 185 120 78 143 82 152 24 15 -105 91 -126 360 -100 135 13 323 23 417 23 227 0 362 37 650 181 l242 121 237 16 c213 14 240 20 274 62 74 91 -73 130 -689 184 -151 14 -275 30 -275 37 0 7 53 73 118 147 65 74 153 185 195 248 164 246 247 275 247 86 0 -30 13 -72 29 -93 43 -59 57 -3 48 200 -12 301 -89 304 -308 10 -143 -193 -278 -326 -411 -409 -235 -146 -364 -272 -323 -313 11 -11 135 -32 277 -48 400 -45 423 -58 243 -137 -159 -69 -346 -109 -536 -115 -207 -5 -240 8 -178 74 87 93 62 399 -37 465 -99 65 -287 -196 -291 -405 -5 -222 -213 -243 -213 -21 0 129 -6 132 -99 41 -121 -116 -514 -304 -554 -264 -8 7 46 75 119 150 147 152 175 218 126 292 -51 78 -198 212 -246 224 -96 24 -469 -158 -595 -291 -32 -34 -64 -62 -72 -62 -7 0 -19 254 -26 565 -7 311 -21 598 -31 639 -20 87 -11 102 42 74 77 -41 71 -5 -57 357 -31 87 -73 110 -95 53z m808 -1573 c124 -64 184 -148 132 -186 -103 -75 -803 -252 -982 -248 -22 0 56 70 239 214 128 100 431 265 488 265 19 0 74 -20 123 -45z m1159 -14 c78 -145 -64 -302 -170 -188 -63 68 -62 78 19 159 77 77 121 86 151 29z"/> <path d="M5636 6648 c-50 -109 79 -215 166 -136 37 33 43 33 109 2 124 -60 196 77 82 157 -54 37 -111 37 -126 -1 -14 -38 -65 -38 -116 1 -56 42 -89 36 -115 -23z"/> <path d="M5336 6540 c-174 -266 -110 -775 71 -560 94 112 95 196 1 122 -29 -23 -61 -42 -71 -42 -29 0 -19 237 14 352 40 137 33 201 -15 128z"/> <path d="M3641 6226 c-87 -110 -52 -203 91 -238 116 -29 173 132 77 221 -76 70 -123 75 -168 17z"/> <path d="M4757 6080 c-2 -33 -4 -70 -5 -83 -1 -12 33 -51 75 -85 l77 -62 48 56 c69 80 62 142 -19 192 -103 64 -172 57 -176 -18z"/> <path d="M5591 4973 c-57 -41 -27 -88 47 -78 87 13 80 -24 -28 -164 -169 -218 -144 -281 110 -280 156 0 219 22 191 67 -7 12 -71 22 -141 22 -224 0 -226 10 -40 224 61 69 110 140 110 158 0 67 -178 103 -249 51z"/> <path d="M3254 4753 c-47 -123 -35 -386 18 -407 42 -16 128 71 128 130 0 44 -6 48 -61 37 l-61 -12 13 139 c13 130 -7 191 -37 113z"/> <path d="M4089 4731 c-44 -67 -31 -112 47 -157 l66 -39 49 46 49 46 46 -44 c64 -60 89 -54 129 29 53 111 -79 196 -193 124 -31 -18 -48 -16 -89 10 -66 43 -66 43 -104 -15z"/> <path d="M5110 4672 c-431 -142 -768 -310 -687 -342 54 -21 897 327 897 370 0 30 -56 23 -210 -28z"/> </g> </svg> 