 <svg  version="1.0" xmlns="http://www.w3.org/2000/svg"  width="300.000000pt" height="300.000000pt" viewBox="0 0 300.000000 300.000000"  preserveAspectRatio="xMidYMid meet">  <g transform="translate(0.000000,300.000000) scale(0.050000,-0.050000)" fill="#ffffff" stroke="none"> <path d="M2890 5200 c-73 -80 -410 -178 -790 -228 -376 -50 -477 -95 -542 -243 -27 -60 -52 -89 -78 -89 -62 0 -100 -56 -100 -149 0 -94 -19 -118 -108 -139 -137 -33 -261 -164 -318 -334 -6 -17 -51 -43 -102 -57 -120 -34 -115 17 -108 -1038 l6 -887 99 -33 c89 -30 101 -42 127 -120 37 -112 157 -229 268 -262 119 -35 136 -54 136 -152 0 -98 38 -149 111 -149 33 0 49 -11 49 -35 0 -164 178 -250 630 -306 300 -37 580 -118 673 -195 19 -15 55 -24 80 -20 177 28 -326 214 -742 275 -473 69 -545 100 -583 252 -21 83 -27 89 -89 89 l-67 0 -13 140 c-14 138 -15 140 -72 140 -146 0 -281 114 -336 284 -34 104 -37 106 -118 112 l-83 6 0 930 0 930 87 -13 88 -13 14 76 c34 183 129 282 314 328 l93 24 13 127 14 127 73 6 c69 6 74 11 86 85 25 151 104 188 553 252 392 57 633 129 753 226 l58 46 112 -67 c150 -90 370 -157 645 -196 518 -73 637 -130 637 -305 0 -39 10 -45 83 -45 l83 0 -12 -129 -12 -129 74 -13 c197 -32 320 -145 343 -316 l11 -83 90 0 90 0 5 -924 5 -924 -95 -6 c-94 -6 -95 -6 -106 -86 -22 -166 -141 -282 -312 -307 l-97 -13 -6 -135 -6 -135 -65 0 c-60 0 -67 -7 -89 -90 -40 -150 -123 -185 -584 -252 -326 -46 -556 -114 -696 -205 -131 -85 -59 -97 93 -16 140 75 357 130 683 174 378 51 536 129 563 278 4 22 31 45 65 54 73 19 91 47 92 138 0 92 29 125 144 167 129 47 179 91 233 205 25 53 53 111 61 127 21 39 103 51 123 18 35 -56 40 101 35 1020 l-6 948 -79 22 c-57 17 -82 36 -92 72 -44 165 -207 320 -337 320 -52 0 -82 57 -82 155 0 82 -28 125 -81 125 -18 0 -60 44 -94 97 -91 147 -203 194 -579 244 -381 50 -724 155 -776 239 -21 34 -102 22 -140 -20z"/> <path d="M2921 5011 c-78 -93 -332 -173 -743 -232 -386 -56 -466 -95 -496 -243 -11 -56 -23 -67 -78 -72 l-64 -7 0 -118 c0 -116 -1 -119 -55 -119 -153 -2 -306 -141 -336 -305 -13 -71 -17 -75 -89 -75 -103 0 -99 33 -100 -917 l0 -828 88 14 88 13 13 -78 c27 -157 140 -271 294 -297 80 -13 96 -41 97 -171 0 -69 5 -75 70 -87 55 -11 70 -23 70 -59 0 -142 160 -218 550 -261 276 -30 545 -112 662 -200 l62 -47 148 77 c174 91 306 127 618 170 403 55 473 88 527 242 23 67 36 80 90 85 63 7 63 7 63 123 l0 116 69 11 c175 28 281 125 308 278 14 84 16 86 94 86 l79 0 5 864 5 864 -85 6 c-80 6 -85 10 -96 76 -27 162 -180 299 -334 300 -42 0 -45 9 -45 119 l0 119 -75 6 c-68 5 -75 12 -86 77 -23 142 -104 185 -431 229 -359 49 -551 100 -716 190 -127 70 -150 77 -171 51z m209 -138 c108 -45 479 -127 800 -176 142 -21 255 -100 270 -189 7 -42 29 -66 76 -87 61 -27 66 -36 61 -107 -7 -90 51 -154 138 -154 116 0 226 -119 258 -278 6 -33 26 -65 44 -70 18 -4 59 -14 90 -21 40 -9 53 -22 45 -43 -7 -17 -12 -382 -12 -810 l0 -778 -58 0 c-70 0 -91 -24 -122 -139 -30 -112 -119 -197 -225 -214 -102 -16 -155 -68 -155 -152 -1 -79 -18 -108 -69 -118 -26 -5 -51 -39 -72 -97 -43 -121 -143 -171 -399 -201 -300 -35 -534 -93 -691 -170 l-145 -72 -117 59 c-167 84 -361 137 -637 173 -383 49 -402 58 -480 219 -26 54 -55 84 -85 88 -32 5 -45 20 -45 53 0 136 -21 170 -125 201 -145 43 -229 114 -256 216 -29 108 -71 154 -142 154 l-57 0 0 810 0 810 46 0 c71 0 108 40 154 165 47 126 110 184 225 205 115 22 141 51 143 162 2 81 9 99 42 105 55 10 110 62 110 104 0 121 67 150 486 209 328 46 549 103 614 159 72 62 111 59 290 -16z"/> <path d="M3772 4230 c-7 -27 1 -227 18 -445 57 -751 53 -785 -83 -785 -87 0 -156 66 -186 177 -33 120 -47 118 -199 -36 -100 -102 -174 -157 -269 -200 -250 -112 -228 -168 77 -201 298 -33 301 -36 130 -99 -82 -30 -166 -62 -185 -70 -21 -9 -35 -7 -35 5 0 36 -133 164 -169 164 -19 0 -60 -26 -93 -58 -129 -130 -41 -283 144 -252 369 63 -502 -489 -950 -601 -60 -15 -70 -49 -15 -49 380 0 1083 394 1083 607 0 26 11 57 25 69 46 37 566 204 638 204 56 0 75 10 94 51 33 74 15 89 -108 89 -106 0 -509 53 -525 69 -4 4 54 67 129 138 141 135 187 142 187 31 0 -62 128 -178 196 -178 213 0 260 246 191 1000 -13 144 -12 149 23 120 43 -35 43 -33 -31 175 -48 136 -68 152 -87 75z m-863 -1637 c26 -19 30 -31 14 -41 -28 -17 -143 4 -143 26 0 47 74 56 129 15z"/> <path d="M4066 4248 c-6 -18 8 -333 32 -700 25 -367 45 -767 45 -888 1 -234 18 -276 55 -131 31 124 27 380 -16 961 -37 493 -37 547 -2 490 43 -69 35 4 -15 146 -56 155 -76 181 -99 122z"/> <path d="M3210 3968 c-110 -50 -211 -95 -223 -101 -26 -11 -53 -68 -39 -81 5 -5 33 7 62 26 30 19 136 68 237 109 114 45 185 86 189 106 10 47 -3 44 -226 -59z"/> <path d="M2002 3832 c-14 -16 -22 -59 -18 -95 6 -62 -1 -69 -136 -146 -127 -72 -185 -131 -113 -115 43 10 257 140 284 173 14 17 35 25 46 18 28 -17 57 37 34 65 -11 12 -17 44 -14 70 6 55 -46 74 -83 30z"/> <path d="M3235 3829 c-6 -7 -4 -38 5 -70 10 -34 9 -63 -1 -70 -33 -20 -59 12 -59 72 0 33 -9 59 -20 59 -30 0 -24 -152 7 -178 31 -25 93 -10 93 23 0 11 14 8 32 -7 31 -26 88 16 88 65 0 41 -42 118 -59 107 -13 -7 -12 -30 0 -63 11 -29 16 -57 11 -62 -17 -17 -52 17 -52 51 -1 42 -29 89 -45 73z"/> <path d="M3346 3501 c-13 -50 -14 -50 -79 -7 -53 35 -107 3 -107 -64 0 -52 116 -94 140 -50 20 38 25 39 65 10 73 -50 148 16 93 82 -51 62 -100 75 -112 29z"/> <path d="M2052 3488 c-23 -59 -12 -123 40 -237 159 -347 143 -461 -88 -637 -317 -241 -516 -212 -452 67 28 125 28 185 -1 156 -87 -86 -80 -450 10 -497 141 -76 545 156 640 367 38 85 43 79 69 -77 18 -110 56 -162 130 -177 154 -31 249 170 171 358 -62 147 -90 38 -41 -155 12 -47 7 -56 -36 -67 -127 -32 -152 10 -215 349 -63 342 -189 649 -227 550z"/> <path d="M2897 3315 c-67 -170 -63 -235 14 -235 79 0 117 136 57 202 -24 27 -26 44 -9 76 17 33 17 42 -3 42 -14 0 -41 -38 -59 -85z m59 -122 c5 -22 -6 -33 -33 -33 -30 0 -37 10 -29 41 13 47 53 42 62 -8z"/> <path d="M3352 2444 c-27 -52 63 -181 97 -141 11 14 51 95 51 104 0 6 -27 29 -59 52 l-59 42 -30 -57z"/> <path d="M2510 2340 c-15 -47 -27 -49 -79 -9 -21 16 -44 29 -52 29 -13 0 -65 -102 -55 -109 3 -2 30 -18 60 -37 52 -33 55 -32 76 7 l22 40 56 -40 56 -40 24 52 c25 56 9 91 -60 128 -27 15 -38 10 -48 -21z"/> <path d="M2945 2043 c-195 -89 -285 -149 -262 -173 6 -6 78 20 159 58 81 38 191 87 243 109 55 24 95 54 95 72 0 41 1 41 -235 -66z"/> </g> </svg> 